<svg width="118" height="27" viewBox="0 0 118 27" fill="none" xmlns="http://www.w3.org/2000/svg">
<path d="M22.1854 11.556C22.1745 10.2352 20.8816 9.39564 19.6601 9.92504C18.9151 10.2459 18.581 10.8502 18.5426 11.6256C18.5317 11.893 18.5426 12.1604 18.5426 12.4277C18.5426 13.3956 18.5426 14.3582 18.5426 15.3207C18.5426 16.0427 18.0441 16.556 17.343 16.556C16.6199 16.556 16.1049 16.048 16.1049 15.3154C16.1049 14.0534 16.1049 12.7967 16.1049 11.5347C16.1049 10.2352 14.8067 9.40097 13.5906 9.91971C12.758 10.278 12.4621 10.9679 12.4621 11.8128C12.4621 13.4705 12.4621 15.0427 12.4621 15.7967C12.4621 15.7967 12.4621 15.8128 12.4621 15.8181V16.1015C12.4621 16.139 12.4621 16.171 12.4621 16.2031C12.3745 17.8395 11.4159 19.2512 10.03 20.0052C9.35071 20.3689 8.57291 20.5774 7.74574 20.5774C5.13277 20.5774 3.02379 18.5079 3.02379 15.9624C3.02379 15.8556 3.02379 15.7433 3.03474 15.6363C3.01283 14.9785 3.02927 14.3208 3.01283 13.663C3.01283 13.3849 3.01283 13.1069 3.01283 12.7807H0.251982C0.120513 12.7807 0.0164333 12.8823 0.0109557 13.0053C0.00547751 13.1711 0 13.3315 0 13.4972C0 20.9571 6.19547 26.9999 13.8317 26.9999C16.9321 26.9999 19.7916 26.0053 22.0923 24.3261C22.1525 24.2833 22.1909 24.2084 22.1909 24.1336C22.1909 21.9892 22.1909 12.7485 22.1909 11.5507L22.1854 11.556ZM17.1403 17.8128C17.9291 17.6951 18.5864 18.3903 18.3728 19.1657C18.2742 19.5239 17.9784 19.8127 17.6114 19.909C16.8171 20.1175 16.1049 19.4705 16.2255 18.7058C16.2967 18.2512 16.6746 17.8823 17.1403 17.8128ZM17.3156 22.8769C16.7075 22.8769 16.2145 22.3956 16.2145 21.8021C16.2145 21.2191 16.7295 20.7218 17.3265 20.7272C17.9291 20.7325 18.4166 21.2138 18.4166 21.8021C18.4166 22.3903 17.9236 22.8769 17.3156 22.8769Z" fill="#F4F4F4"/>
<path d="M25.0667 21.3743C24.9298 21.5615 24.6285 21.4653 24.6285 21.2353C24.6285 17.6524 24.6285 12.369 24.6285 11.4652C24.6285 11.1337 24.6176 10.8021 24.5847 10.4706C24.3985 8.75401 23.2316 7.67381 21.4733 7.58824C20.3174 7.52939 19.2656 7.77537 18.4056 8.57221C18.2687 8.69517 18.1427 8.83958 18.0167 8.97327C16.5431 7.19785 14.5218 7.07489 12.4731 8.63632C12.4183 8.50804 12.3745 8.37435 12.3088 8.25666C12.0348 7.79143 11.4761 7.57218 10.9393 7.70586C10.4079 7.83421 10.03 8.29945 10.03 8.87164C10.03 9.48661 10.03 10.5989 10.03 11.9251V12.7272C10.03 13.0642 10.03 13.4118 10.03 13.7647V14.5722C10.03 15 10.03 15.4331 10.03 15.861C10.03 16.7808 9.45481 17.5722 8.63311 17.9037C8.3647 18.0106 8.07435 18.0748 7.76759 18.0748C6.51316 18.0748 5.51071 16.8984 5.51071 15.6792C5.50523 15.7379 5.51071 15.615 5.51071 15.6792C5.48879 14.8128 5.50523 13.9519 5.51071 13.0856C5.51071 12.9947 5.51618 12.9037 5.52166 12.7861H5.84485C6.33787 12.7861 6.83636 12.8021 7.32935 12.7647C7.94835 12.7166 8.35923 12.2299 8.33182 11.6256C8.33182 11.5455 8.31541 11.4652 8.29893 11.3904C8.1784 10.9198 7.76759 10.5882 7.23077 10.5722C6.97877 10.5668 6.71583 10.5722 6.45838 10.5722C6.15162 10.5722 5.83938 10.5722 5.51071 10.5722C5.51071 10.2032 5.51071 9.877 5.51071 9.55612C5.50523 9.20318 5.51618 8.85024 5.46688 8.50264C5.37376 7.89306 4.79858 7.508 4.13028 7.55611C3.52772 7.6043 3.0347 8.11231 3.02923 8.7005C3.01827 9.21924 3.02923 9.73799 3.02923 10.2567C3.02923 10.3529 3.01827 10.4492 3.01279 10.5668C2.79915 10.5668 1.61046 10.5668 0.668261 10.5668C0.509404 10.5668 0.394371 10.4225 0.432711 10.2727C1.88435 4.37433 7.33482 0 13.8316 0C21.4733 0 27.6632 6.04277 27.6632 13.4973C27.6632 16.4385 26.7046 19.1551 25.0667 21.369V21.3743Z" fill="#F4F4F4"/>
<path d="M100.53 10.7595C103.422 8.56168 106.27 8.73282 108.352 11.2355C108.533 11.043 108.708 10.8451 108.9 10.6686C110.116 9.54033 111.606 9.19805 113.233 9.27829C115.709 9.40124 117.363 10.9254 117.621 13.3478C117.67 13.813 117.687 14.2836 117.692 14.7542C117.698 16.5831 117.692 18.412 117.692 20.2408C117.692 21.2141 116.953 21.936 115.977 21.936C114.991 21.936 114.258 21.2248 114.252 20.2515C114.247 18.4601 114.258 16.6687 114.252 14.8825C114.241 13.0216 112.417 11.8398 110.692 12.5831C109.639 13.0377 109.168 13.8932 109.114 14.9841C109.097 15.3638 109.108 15.7435 109.108 16.1232C109.108 17.4814 109.108 18.8397 109.108 20.198C109.108 21.2141 108.401 21.936 107.41 21.9413C106.396 21.9413 105.668 21.2194 105.663 20.1873C105.663 18.412 105.663 16.6312 105.663 14.8558C105.657 13.0269 103.838 11.8451 102.119 12.5778C100.946 13.0804 100.524 14.0537 100.524 15.2462C100.524 16.9306 100.524 18.6152 100.524 20.305C100.524 21.0911 99.949 21.7702 99.1986 21.9093C98.3277 22.0697 97.517 21.6579 97.2103 20.8825C97.1334 20.69 97.0843 20.4761 97.0843 20.2729C97.0787 17.2141 97.0732 14.1552 97.0843 11.1018C97.0843 10.2943 97.6263 9.63656 98.3713 9.44936C99.1328 9.2569 99.9165 9.56705 100.306 10.2248C100.404 10.3905 100.464 10.5777 100.541 10.7595H100.53Z" fill="#F4F4F4"/>
<path d="M50.6375 10.5992C52.0618 9.17673 53.7161 8.86657 55.5293 9.15C57.3972 9.44417 58.7777 10.8719 59.0954 12.8077C59.1556 13.1928 59.1994 13.5885 59.1994 13.9789C59.2104 16.0591 59.2104 18.1339 59.1994 20.2142C59.1994 20.9842 58.7722 21.5885 58.0984 21.8291C57.4082 22.0805 56.6467 21.888 56.1647 21.3425C55.8415 20.9736 55.7429 20.5404 55.7429 20.0698C55.7429 18.2944 55.7429 16.5137 55.7429 14.7382C55.7429 13.2409 54.7405 12.1928 53.3052 12.1821C51.7769 12.1714 50.654 13.2249 50.643 14.7222C50.6266 16.5404 50.643 18.3532 50.6375 20.1714C50.632 21.4334 49.4817 22.2516 48.3039 21.8291C47.674 21.6045 47.296 21.1554 47.2029 20.5029C47.1755 20.3104 47.1591 20.1125 47.1591 19.9201C47.1591 15.658 47.1536 11.396 47.1646 7.13934C47.1646 6.75965 47.2303 6.34253 47.3946 6.00564C47.7452 5.29975 48.5669 4.98959 49.3338 5.18211C50.1116 5.37997 50.6156 6.02168 50.6266 6.8666C50.6375 7.93611 50.6266 9.01099 50.6266 10.0805C50.6266 10.2196 50.6266 10.3586 50.6266 10.6045L50.6375 10.5992Z" fill="#F4F4F4"/>
<path d="M82.6608 13.6472C83.8225 12.6846 84.8796 11.8076 85.9368 10.9253C86.4138 10.5296 86.8901 10.1231 87.3719 9.73274C88.0954 9.14988 89.1138 9.21406 89.7168 9.88248C90.3904 10.6311 90.3904 11.5723 89.6565 12.2248C88.8618 12.9252 88.0296 13.5777 87.2079 14.2568C87.1089 14.3424 87.0105 14.428 86.8845 14.5403C87.1199 14.8665 87.3449 15.1873 87.5748 15.5082C88.4679 16.7434 89.3443 18.0001 90.2755 19.214C90.8286 19.936 90.7573 21.0803 89.9522 21.6579C89.1962 22.198 88.0843 21.9787 87.4813 21.1552C86.4844 19.7969 85.4985 18.4279 84.5072 17.0643C84.4303 16.9574 84.3486 16.8557 84.233 16.706C83.7345 17.1124 83.2361 17.5028 82.7653 17.9146C82.6885 17.9841 82.6719 18.1499 82.6719 18.2728C82.6608 18.9146 82.6719 19.5509 82.6663 20.1927C82.6504 21.2034 81.8944 21.9466 80.903 21.9413C79.9061 21.9306 79.166 21.1873 79.166 20.1713C79.166 15.7274 79.166 11.2836 79.166 6.84506C79.166 5.85041 79.9442 5.07501 80.9189 5.07501C81.8722 5.07501 82.6608 5.83971 82.6663 6.81297C82.6774 8.91457 82.6663 11.0215 82.6663 13.1231C82.6663 13.2622 82.6663 13.4012 82.6663 13.6579L82.6608 13.6472Z" fill="#F4F4F4"/>
<path d="M69.0922 10.6099C70.6042 9.06977 72.4173 8.79167 74.3842 9.24624C76.1973 9.66869 77.4788 11.2195 77.6048 13.1607C77.6983 14.658 77.6595 16.166 77.6761 17.6686C77.6816 18.5189 77.6816 19.3692 77.6761 20.2194C77.6706 21.2195 76.9312 21.9414 75.9398 21.936C74.9595 21.9307 74.2416 21.2248 74.236 20.2302C74.2305 18.412 74.236 16.5938 74.236 14.781C74.236 13.7275 73.8255 12.8986 72.8286 12.4174C71.1082 11.5938 69.1413 12.8023 69.1088 14.7222C69.0763 16.567 69.1033 18.4066 69.0977 20.2516C69.0977 21.0216 68.6158 21.6526 67.8818 21.8665C67.1477 22.0804 66.337 21.8237 65.9481 21.1874C65.7783 20.9093 65.6687 20.551 65.6687 20.2302C65.6468 17.1339 65.6523 14.0323 65.6577 10.936C65.6577 10.0644 66.2384 9.36919 67.0655 9.23551C67.9585 9.09116 68.7308 9.56173 69.0209 10.4227C69.0375 10.4708 69.0596 10.5136 69.0977 10.6099H69.0922Z" fill="#F4F4F4"/>
<path d="M92.0989 15.6792C92.0989 14.2033 92.0989 12.7274 92.0989 11.2514C92.0989 10.1766 92.839 9.41724 93.8629 9.42257C94.893 9.43324 95.6047 10.1873 95.6047 11.2675C95.6047 14.2461 95.6047 17.2247 95.6047 20.2086C95.6047 21.1498 94.9422 21.8343 93.9833 21.9306C93.1456 22.0108 92.3405 21.4439 92.1487 20.6151C92.11 20.4386 92.1044 20.2514 92.1044 20.0696C92.1044 18.6044 92.1044 17.1445 92.1044 15.6792H92.0989Z" fill="#F4F4F4"/>
<path d="M95.8131 7.11236C95.8131 8.23002 94.9533 9.1017 93.8304 9.10703C92.7019 9.11236 91.831 8.25141 91.8254 7.13915C91.8254 6.01613 92.6742 5.16051 93.8027 5.14982C94.9256 5.13912 95.8076 6.00008 95.8131 7.11776V7.11236Z" fill="#F4F4F4"/>
<path d="M64.1788 15.7008C64.1788 17.2142 64.1788 18.7329 64.1788 20.2463C64.1788 21.1447 63.5051 21.8665 62.6176 21.9307C61.6316 22.0056 60.7935 21.412 60.7223 20.4708C60.6456 19.4708 60.673 18.4602 60.673 17.4548C60.673 15.5457 60.6949 13.642 60.7059 11.7329C60.7059 11.4869 60.7004 11.2355 60.7059 10.9896C60.7387 10.0965 61.4618 9.396 62.3821 9.36921C63.3188 9.33715 64.1459 10.0056 64.1679 10.9147C64.2062 12.5083 64.1788 14.1018 64.1788 15.6954H64.1733L64.1788 15.7008Z" fill="#F4F4F4"/>
<path d="M60.6126 7.04824C60.618 5.94666 61.4671 5.10708 62.5846 5.10174C63.7239 5.09639 64.6005 5.9734 64.584 7.10709C64.5676 8.21935 63.6857 9.07497 62.5627 9.05898C61.4342 9.04292 60.607 8.1873 60.6126 7.04824Z" fill="#F4F4F4"/>
<path d="M45.6908 20.1177C45.6908 20.5723 45.4771 20.9734 45.1485 21.2407C45.132 21.2568 45.1102 21.2675 45.0937 21.2782C45.0663 21.2996 45.0389 21.3156 45.0061 21.3316C44.9185 21.3797 44.8253 21.4279 44.7322 21.4707C44.7322 21.4707 44.7267 21.476 44.7212 21.476C43.8612 21.8824 42.9245 22.0054 41.9768 21.8985C39.5172 21.6258 37.9999 20.1231 37.8081 17.69C37.7041 16.3905 37.7424 15.0803 37.7205 13.7755C37.715 13.3851 37.7205 12.9947 37.7205 12.5295C37.3097 12.5295 36.9153 12.5295 36.5154 12.5295C35.7759 12.5188 35.2171 12.214 34.9323 11.5295C34.5159 10.5295 35.25 9.44929 36.362 9.4065C36.7893 9.39051 37.2165 9.4065 37.6931 9.4065C37.7041 9.24076 37.715 9.10708 37.715 8.968C37.715 8.2354 37.7095 7.5028 37.7205 6.77016C37.7315 5.93594 38.4271 5.21936 39.2762 5.15519C40.2184 5.08033 41.0291 5.62578 41.1606 6.48674C41.2373 6.97339 41.2099 7.47607 41.2208 7.97336C41.2318 8.42793 41.2208 8.88783 41.2208 9.4065C41.6865 9.4065 42.1247 9.4065 42.563 9.4065C42.9245 9.4065 43.286 9.39584 43.6476 9.4065C44.524 9.43329 45.1704 10.0536 45.2033 10.8932C45.2362 11.7381 44.661 12.4279 43.79 12.5028C43.0998 12.5562 42.3986 12.5242 41.6974 12.5295C41.555 12.5295 41.4126 12.5295 41.2428 12.5295C41.2318 12.7006 41.2208 12.8237 41.2208 12.9519C41.2208 14.2087 41.199 15.46 41.2318 16.7167C41.2428 17.1284 41.3085 17.5563 41.4509 17.9413C41.7138 18.6525 42.3055 18.9573 43.0724 18.8557C43.3353 18.8183 43.5982 18.7541 43.8557 18.7007C43.8667 18.7007 43.8776 18.7007 43.8831 18.6953H43.8886C43.9269 18.6846 43.9653 18.6793 44.0036 18.6793C44.0091 18.6793 44.0146 18.6739 44.0255 18.6793C44.1132 18.6685 44.2008 18.6685 44.283 18.6739C44.3323 18.6739 44.387 18.6793 44.4364 18.6899C44.4637 18.6899 44.4966 18.7007 44.524 18.706C44.5623 18.7113 44.6007 18.722 44.639 18.7327C45.2416 18.9199 45.6799 19.4707 45.6799 20.1231L45.6908 20.1177Z" fill="#F4F4F4"/>
</svg>
